<?xml version="1.0" standalone="no"?>
<!DOCTYPE svg PUBLIC "-//W3C//DTD SVG 20010904//EN"
 "http://www.w3.org/TR/2001/REC-SVG-20010904/DTD/svg10.dtd">
<svg version="1.0" xmlns="http://www.w3.org/2000/svg"
 width="128.000000pt" height="128.000000pt" viewBox="0 0 128.000000 128.000000"
 preserveAspectRatio="xMidYMid meet">
<metadata>
Created by potrace 1.11, written by Peter Selinger 2001-2013
</metadata>
<g transform="translate(0.000000,128.000000) scale(0.100000,-0.100000)"
fill="#000000" stroke="none">
<path d="M442 1176 c-25 -14 -32 -28 -31 -61 3 -93 1 -100 -42 -124 -95 -54
-207 -203 -224 -300 -3 -16 -9 -40 -13 -53 -13 -39 -4 -146 18 -215 43 -133
135 -240 256 -298 96 -47 215 -63 309 -42 22 5 48 10 58 12 42 9 145 74 197
125 52 51 115 156 125 206 2 10 4 19 5 19 5 0 11 48 13 105 6 139 -52 280
-156 376 -33 31 -74 62 -91 71 -30 14 -31 17 -33 85 -3 105 0 103 -204 103
-94 0 -178 -4 -187 -9z"/>
</g>
</svg>
